<svg width="2475" height="1233" xmlns="http://www.w3.org/2000/svg" xmlns:xlink="http://www.w3.org/1999/xlink" xml:space="preserve" overflow="hidden"><g transform="translate(-444 -632)"><g><path d="M2628 1404.5 2679.5 1353 2731 1404.5 2705.25 1404.5 2705.25 1621 2653.75 1621 2653.75 1404.5Z" fill="#46668A" fill-rule="evenodd" fill-opacity="1"/><path d="M452 1652.94C452 1638.06 464.06 1626 478.937 1626L899.063 1626C913.94 1626 926 1638.06 926 1652.94L926 1821.06C926 1835.94 913.94 1848 899.063 1848L478.937 1848C464.06 1848 452 1835.94 452 1821.06Z" fill="#80B135" fill-rule="evenodd" fill-opacity="1"/><text fill="#000000" fill-opacity="1" font-family="Roboto,Roboto_MSFontService,sans-serif" font-style="normal" font-variant="normal" font-weight="400" font-stretch="normal" font-size="73" text-anchor="start" direction="ltr" writing-mode="lr-tb" unicode-bidi="normal" text-decoration="none" transform="matrix(1 0 0 1 492.939 1763)">Binary Code</text><path d="M2444 1648.06C2444 1633.11 2456.11 1621 2471.06 1621L2890.94 1621C2905.89 1621 2918 1633.11 2918 1648.06L2918 1816.94C2918 1831.89 2905.89 1844 2890.94 1844L2471.06 1844C2456.11 1844 2444 1831.89 2444 1816.94Z" fill="#80B135" fill-rule="evenodd" fill-opacity="1"/><text fill="#000000" fill-opacity="1" font-family="Roboto,Roboto_MSFontService,sans-serif" font-style="normal" font-variant="normal" font-weight="400" font-stretch="normal" font-size="73" text-anchor="start" direction="ltr" writing-mode="lr-tb" unicode-bidi="normal" text-decoration="none" transform="matrix(1 0 0 1 2498.93 1715)">Formalised</text><text fill="#000000" fill-opacity="1" font-family="Roboto,Roboto_MSFontService,sans-serif" font-style="normal" font-variant="normal" font-weight="400" font-stretch="normal" font-size="73" text-anchor="start" direction="ltr" writing-mode="lr-tb" unicode-bidi="normal" text-decoration="none" transform="matrix(1 0 0 1 2579.41 1803)">Binary</text><path d="M2443 1153.06C2443 1138.11 2455.11 1126 2470.06 1126L2889.94 1126C2904.89 1126 2917 1138.11 2917 1153.06L2917 1321.94C2917 1336.89 2904.89 1349 2889.94 1349L2470.06 1349C2455.11 1349 2443 1336.89 2443 1321.94Z" fill="#80B135" fill-rule="evenodd" fill-opacity="1"/><text fill="#000000" fill-opacity="1" font-family="Roboto,Roboto_MSFontService,sans-serif" font-style="normal" font-variant="normal" font-weight="400" font-stretch="normal" font-size="73" text-anchor="start" direction="ltr" writing-mode="lr-tb" unicode-bidi="normal" text-decoration="none" transform="matrix(1 0 0 1 2581.49 1220)">Graph</text><text fill="#000000" fill-opacity="1" font-family="Roboto,Roboto_MSFontService,sans-serif" font-style="normal" font-variant="normal" font-weight="400" font-stretch="normal" font-size="73" text-anchor="start" direction="ltr" writing-mode="lr-tb" unicode-bidi="normal" text-decoration="none" transform="matrix(1 0 0 1 2518.47 1308)">Language</text><path d="M1416 1153.06C1416 1138.11 1428.11 1126 1443.06 1126L1862.94 1126C1877.89 1126 1890 1138.11 1890 1153.06L1890 1321.94C1890 1336.89 1877.89 1349 1862.94 1349L1443.06 1349C1428.11 1349 1416 1336.89 1416 1321.94Z" fill="#80B135" fill-rule="evenodd" fill-opacity="1"/><text fill="#000000" fill-opacity="1" font-family="Roboto,Roboto_MSFontService,sans-serif" font-style="normal" font-variant="normal" font-weight="400" font-stretch="normal" font-size="73" text-anchor="start" direction="ltr" writing-mode="lr-tb" unicode-bidi="normal" text-decoration="none" transform="matrix(1 0 0 1 1554.94 1220)">Graph</text><text fill="#000000" fill-opacity="1" font-family="Roboto,Roboto_MSFontService,sans-serif" font-style="normal" font-variant="normal" font-weight="400" font-stretch="normal" font-size="73" text-anchor="start" direction="ltr" writing-mode="lr-tb" unicode-bidi="normal" text-decoration="none" transform="matrix(1 0 0 1 1491.92 1308)">Language</text><path d="M0 51.4999 51.4998 0 51.4998 25.7499 1518 25.7499 1518 77.2498 51.4998 77.2498 51.4998 103Z" fill="#46668A" fill-rule="evenodd" fill-opacity="1" transform="matrix(-1 0 0 1 2444 1685)"/><text fill="#000000" fill-opacity="1" font-family="Roboto,Roboto_MSFontService,sans-serif" font-style="normal" font-variant="normal" font-weight="400" font-stretch="normal" font-size="73" text-anchor="start" direction="ltr" writing-mode="lr-tb" unicode-bidi="normal" text-decoration="none" transform="matrix(1 0 0 1 1375.59 1668)">Formal ISA Spec</text><text fill="#000000" fill-opacity="1" font-family="Roboto,Roboto_MSFontService,sans-serif" font-style="normal" font-variant="normal" font-weight="400" font-stretch="normal" font-size="73" text-anchor="start" direction="ltr" writing-mode="lr-tb" unicode-bidi="normal" text-decoration="none" transform="matrix(1 0 0 1 1978.4 1170)">SMT Solver</text><text fill="#000000" fill-opacity="1" font-family="Roboto,Roboto_MSFontService,sans-serif" font-style="normal" font-variant="normal" font-weight="400" font-stretch="normal" font-size="73" text-anchor="start" direction="ltr" writing-mode="lr-tb" unicode-bidi="normal" text-decoration="none" transform="matrix(1 0 0 1 1705.57 971)">Rewrite</text><text fill="#000000" fill-opacity="1" font-family="Roboto,Roboto_MSFontService,sans-serif" font-style="normal" font-variant="normal" font-weight="400" font-stretch="normal" font-size="73" text-anchor="start" direction="ltr" writing-mode="lr-tb" unicode-bidi="normal" text-decoration="none" transform="matrix(1 0 0 1 1737.66 1059)">Rules</text><text fill="#000000" fill-opacity="1" font-family="Roboto,Roboto_MSFontService,sans-serif" font-style="normal" font-variant="normal" font-weight="400" font-stretch="normal" font-size="73" text-anchor="start" direction="ltr" writing-mode="lr-tb" unicode-bidi="normal" text-decoration="none" transform="matrix(1 0 0 1 2401.46 1469)">Dis</text><text fill="#000000" fill-opacity="1" font-family="Roboto,Roboto_MSFontService,sans-serif" font-style="normal" font-variant="normal" font-weight="400" font-stretch="normal" font-size="73" text-anchor="start" direction="ltr" writing-mode="lr-tb" unicode-bidi="normal" text-decoration="none" transform="matrix(1 0 0 1 2505.16 1469)">-</text><text fill="#000000" fill-opacity="1" font-family="Roboto,Roboto_MSFontService,sans-serif" font-style="normal" font-variant="normal" font-weight="400" font-stretch="normal" font-size="73" text-anchor="start" direction="ltr" writing-mode="lr-tb" unicode-bidi="normal" text-decoration="none" transform="matrix(1 0 0 1 2292.61 1557)">assembler</text><path d="M1892 1236.5 1943.5 1185 1943.5 1210.75 2391.5 1210.75 2391.5 1185 2443 1236.5 2391.5 1288 2391.5 1262.25 1943.5 1262.25 1943.5 1288Z" fill="#46668A" fill-rule="evenodd" fill-opacity="1"/><path d="M0 51.5 51.5001 0 103 51.5 77.2502 51.5 77.2502 268 25.7502 268 25.7502 51.5Z" fill="#46668A" fill-rule="evenodd" fill-opacity="1" transform="matrix(1 0 0 -1 1602 1122)"/><path d="M1416 660.937C1416 646.06 1428.06 634 1442.94 634L1863.06 634C1877.94 634 1890 646.06 1890 660.937L1890 829.063C1890 843.94 1877.94 856 1863.06 856L1442.94 856C1428.06 856 1416 843.94 1416 829.063Z" fill="#80B135" fill-rule="evenodd" fill-opacity="1"/><text fill="#000000" fill-opacity="1" font-family="Roboto,Roboto_MSFontService,sans-serif" font-style="normal" font-variant="normal" font-weight="400" font-stretch="normal" font-size="73" text-anchor="start" direction="ltr" writing-mode="lr-tb" unicode-bidi="normal" text-decoration="none" transform="matrix(1 0 0 1 1470.72 727)">Formalised</text><text fill="#000000" fill-opacity="1" font-family="Roboto,Roboto_MSFontService,sans-serif" font-style="normal" font-variant="normal" font-weight="400" font-stretch="normal" font-size="73" text-anchor="start" direction="ltr" writing-mode="lr-tb" unicode-bidi="normal" text-decoration="none" transform="matrix(1 0 0 1 1535.46 815)">C Code</text><path d="M0 51.5004 51.5003 0 51.5003 25.7499 553 25.7499 553 77.2502 51.5003 77.2502 51.5003 103Z" fill="#46668A" fill-rule="evenodd" fill-opacity="1" transform="matrix(-1 0 0 1 1413 694)"/><text fill="#000000" fill-opacity="1" font-family="Roboto,Roboto_MSFontService,sans-serif" font-style="normal" font-variant="normal" font-weight="400" font-stretch="normal" font-size="73" text-anchor="start" direction="ltr" writing-mode="lr-tb" unicode-bidi="normal" text-decoration="none" transform="matrix(1 0 0 1 1047.97 860)">Formal </text><text fill="#000000" fill-opacity="1" font-family="Roboto,Roboto_MSFontService,sans-serif" font-style="normal" font-variant="normal" font-weight="400" font-stretch="normal" font-size="73" text-anchor="start" direction="ltr" writing-mode="lr-tb" unicode-bidi="normal" text-decoration="none" transform="matrix(1 0 0 1 956.875 948)">C Semantics</text><path d="M454 660.937C454 646.06 466.06 634 480.937 634L901.063 634C915.94 634 928 646.06 928 660.937L928 829.063C928 843.94 915.94 856 901.063 856L480.937 856C466.06 856 454 843.94 454 829.063Z" fill="#80B135" fill-rule="evenodd" fill-opacity="1"/><text fill="#000000" fill-opacity="1" font-family="Roboto,Roboto_MSFontService,sans-serif" font-style="normal" font-variant="normal" font-weight="400" font-stretch="normal" font-size="73" text-anchor="start" direction="ltr" writing-mode="lr-tb" unicode-bidi="normal" text-decoration="none" transform="matrix(1 0 0 1 572.903 771)">C Code</text><path d="M0 51.5001 51.5005 0 103 51.5001 77.2499 51.5001 77.2499 770 25.7502 770 25.7502 51.5001Z" fill="#9AA8BC" fill-rule="evenodd" fill-opacity="1" transform="matrix(1 0 0 -1 639 1626)"/><text fill="#000000" fill-opacity="1" font-family="Roboto,Roboto_MSFontService,sans-serif" font-style="normal" font-variant="normal" font-weight="400" font-stretch="normal" font-size="73" text-anchor="start" direction="ltr" writing-mode="lr-tb" unicode-bidi="normal" text-decoration="none" transform="matrix(1 0 0 1 745.476 1264)">Compiler</text></g></g></svg>