<svg width="3322" height="844" xmlns="http://www.w3.org/2000/svg" xmlns:xlink="http://www.w3.org/1999/xlink" xml:space="preserve" overflow="hidden"><g transform="matrix(1 0 0 1 0 -1191)"><g><text fill="#000000" fill-opacity="1" font-family="Roboto,Roboto_MSFontService,sans-serif" font-style="normal" font-variant="normal" font-weight="700" font-stretch="normal" font-size="64" text-anchor="start" direction="ltr" writing-mode="lr-tb" unicode-bidi="normal" text-decoration="none" transform="matrix(1 0 0 1 2990.18 1818)">10 </text><text fill="#000000" fill-opacity="1" font-family="Roboto,Roboto_MSFontService,sans-serif" font-style="normal" font-variant="normal" font-weight="700" font-stretch="normal" font-size="64" text-anchor="start" direction="ltr" writing-mode="lr-tb" unicode-bidi="normal" text-decoration="none" transform="matrix(1 0 0 1 3079.55 1818)">kSLOC</text><rect x="280" y="1887" width="1170" height="130" fill="#9AA8BC" fill-opacity="1"/><text fill="#000000" fill-opacity="1" font-family="Roboto,Roboto_MSFontService,sans-serif" font-style="normal" font-variant="normal" font-weight="400" font-stretch="normal" font-size="64" text-anchor="start" direction="ltr" writing-mode="lr-tb" unicode-bidi="normal" text-decoration="none" transform="matrix(1 0 0 1 312.416 1976)">Hardware</text><rect x="280" y="1367" width="1170" height="520" fill="#FFD271" fill-opacity="1"/><text fill="#000000" fill-opacity="1" font-family="Roboto,Roboto_MSFontService,sans-serif" font-style="normal" font-variant="normal" font-weight="400" font-stretch="normal" font-size="64" text-anchor="start" direction="ltr" writing-mode="lr-tb" unicode-bidi="normal" text-decoration="none" transform="matrix(1 0 0 1 312.416 1463)">VFS</text><text fill="#000000" fill-opacity="1" font-family="Roboto,Roboto_MSFontService,sans-serif" font-style="normal" font-variant="normal" font-weight="400" font-stretch="normal" font-size="64" text-anchor="start" direction="ltr" writing-mode="lr-tb" unicode-bidi="normal" text-decoration="none" transform="matrix(1 0 0 1 312.416 1587)">IPC, File System</text><text fill="#000000" fill-opacity="1" font-family="Roboto,Roboto_MSFontService,sans-serif" font-style="normal" font-variant="normal" font-weight="400" font-stretch="normal" font-size="64" text-anchor="start" direction="ltr" writing-mode="lr-tb" unicode-bidi="normal" text-decoration="none" transform="matrix(1 0 0 1 312.416 1727)">Scheduler, Virtual Memory</text><text fill="#000000" fill-opacity="1" font-family="Roboto,Roboto_MSFontService,sans-serif" font-style="normal" font-variant="normal" font-weight="400" font-stretch="normal" font-size="64" text-anchor="start" direction="ltr" writing-mode="lr-tb" unicode-bidi="normal" text-decoration="none" transform="matrix(1 0 0 1 312.416 1855)">Device Drivers, Dispatcher</text><path d="M280 1491 1450 1497" stroke="#000000" stroke-width="3.89764" stroke-linecap="butt" stroke-linejoin="round" stroke-miterlimit="10" stroke-opacity="1" fill="none" fill-rule="evenodd"/><path d="M280 1624 1450 1627" stroke="#000000" stroke-width="3.89764" stroke-linecap="butt" stroke-linejoin="round" stroke-miterlimit="10" stroke-opacity="1" fill="none" fill-rule="evenodd"/><path d="M280 1753 1450 1757" stroke="#000000" stroke-width="3.89764" stroke-linecap="butt" stroke-linejoin="round" stroke-miterlimit="10" stroke-opacity="1" fill="none" fill-rule="evenodd"/><path d="M1068.16 1331.95 1068.83 1461.99 1055.84 1462.05 1055.17 1332.01ZM1042.21 1338.58 1061.5 1299.5 1081.19 1338.38ZM1081.79 1455.42 1062.5 1494.5 1042.81 1455.62Z" fill="#000000" fill-rule="nonzero" fill-opacity="1"/><text fill="#000000" fill-opacity="1" font-family="Roboto,Roboto_MSFontService,sans-serif" font-style="normal" font-variant="normal" font-weight="400" font-stretch="normal" font-size="64" text-anchor="start" direction="ltr" writing-mode="lr-tb" unicode-bidi="normal" text-decoration="none" transform="matrix(1 0 0 1 607.52 1280)">Syscall</text><rect x="1814" y="1887" width="1170" height="130" fill="#9AA8BC" fill-opacity="1"/><text fill="#000000" fill-opacity="1" font-family="Roboto,Roboto_MSFontService,sans-serif" font-style="normal" font-variant="normal" font-weight="400" font-stretch="normal" font-size="64" text-anchor="start" direction="ltr" writing-mode="lr-tb" unicode-bidi="normal" text-decoration="none" transform="matrix(1 0 0 1 1846.11 1976)">Hardware</text><rect x="1814" y="1705" width="1170" height="182" fill="#A5D062" fill-opacity="1"/><text fill="#000000" fill-opacity="1" font-family="Roboto,Roboto_MSFontService,sans-serif" font-style="normal" font-variant="normal" font-weight="400" font-stretch="normal" font-size="64" text-anchor="start" direction="ltr" writing-mode="lr-tb" unicode-bidi="normal" text-decoration="none" transform="matrix(1 0 0 1 1845.72 1857)">IPC, Threads, Virtual Memory</text><rect x="1814" y="1503" width="390" height="199" fill="#46668A" fill-opacity="1"/><text fill="#FFFFFF" fill-opacity="1" font-family="Roboto,Roboto_MSFontService,sans-serif" font-style="normal" font-variant="normal" font-weight="400" font-stretch="normal" font-size="64" text-anchor="start" direction="ltr" writing-mode="lr-tb" unicode-bidi="normal" text-decoration="none" transform="matrix(1 0 0 1 1847.44 1626)">Application</text><rect x="2204" y="1299" width="259" height="403" fill="#FFD271" fill-opacity="1"/><text fill="#000000" fill-opacity="1" font-family="Roboto,Roboto_MSFontService,sans-serif" font-style="normal" font-variant="normal" font-weight="400" font-stretch="normal" font-size="64" text-anchor="start" direction="ltr" writing-mode="lr-tb" unicode-bidi="normal" text-decoration="none" transform="matrix(1 0 0 1 2242.77 1409)">NW</text><text fill="#000000" fill-opacity="1" font-family="Roboto,Roboto_MSFontService,sans-serif" font-style="normal" font-variant="normal" font-weight="400" font-stretch="normal" font-size="64" text-anchor="start" direction="ltr" writing-mode="lr-tb" unicode-bidi="normal" text-decoration="none" transform="matrix(1 0 0 1 2242.77 1486)">Proto</text><text fill="#000000" fill-opacity="1" font-family="Roboto,Roboto_MSFontService,sans-serif" font-style="normal" font-variant="normal" font-weight="400" font-stretch="normal" font-size="64" text-anchor="start" direction="ltr" writing-mode="lr-tb" unicode-bidi="normal" text-decoration="none" transform="matrix(1 0 0 1 2399.75 1486)">-</text><text fill="#000000" fill-opacity="1" font-family="Roboto,Roboto_MSFontService,sans-serif" font-style="normal" font-variant="normal" font-weight="400" font-stretch="normal" font-size="64" text-anchor="start" direction="ltr" writing-mode="lr-tb" unicode-bidi="normal" text-decoration="none" transform="matrix(1 0 0 1 2242.77 1563)">col</text><text fill="#000000" fill-opacity="1" font-family="Roboto,Roboto_MSFontService,sans-serif" font-style="normal" font-variant="normal" font-weight="400" font-stretch="normal" font-size="64" text-anchor="start" direction="ltr" writing-mode="lr-tb" unicode-bidi="normal" text-decoration="none" transform="matrix(1 0 0 1 2242.77 1640)">Stack</text><rect x="2723" y="1299" width="261" height="406" fill="#FFD271" fill-opacity="1"/><text fill="#000000" fill-opacity="1" font-family="Roboto,Roboto_MSFontService,sans-serif" font-style="normal" font-variant="normal" font-weight="400" font-stretch="normal" font-size="64" text-anchor="start" direction="ltr" writing-mode="lr-tb" unicode-bidi="normal" text-decoration="none" transform="matrix(1 0 0 1 2762.4 1410)">File</text><text fill="#000000" fill-opacity="1" font-family="Roboto,Roboto_MSFontService,sans-serif" font-style="normal" font-variant="normal" font-weight="400" font-stretch="normal" font-size="64" text-anchor="start" direction="ltr" writing-mode="lr-tb" unicode-bidi="normal" text-decoration="none" transform="matrix(1 0 0 1 2762.4 1487)">Server</text><rect x="2463" y="1445" width="260" height="260" fill="#DEBDB9" fill-opacity="1"/><text fill="#000000" fill-opacity="1" font-family="Roboto,Roboto_MSFontService,sans-serif" font-style="normal" font-variant="normal" font-weight="400" font-stretch="normal" font-size="64" text-anchor="start" direction="ltr" writing-mode="lr-tb" unicode-bidi="normal" text-decoration="none" transform="matrix(1 0 0 1 2502.3 1522)">Device</text><text fill="#000000" fill-opacity="1" font-family="Roboto,Roboto_MSFontService,sans-serif" font-style="normal" font-variant="normal" font-weight="400" font-stretch="normal" font-size="64" text-anchor="start" direction="ltr" writing-mode="lr-tb" unicode-bidi="normal" text-decoration="none" transform="matrix(1 0 0 1 2502.3 1599)">Driver</text><path d="M6.49606-1.80337e-05 6.49633 97.5196-6.49579 97.5197-6.49606 1.80337e-05ZM19.4884 91.0235 0.000360892 130-19.4879 91.0236Z" fill="#000000" fill-rule="nonzero" fill-opacity="1" transform="matrix(1 0 0 -1 2074.5 1757.5)"/><path d="M6.49606-1.76269e-05 6.49634 100.52-6.49579 100.52-6.49606 1.76269e-05ZM19.4884 94.0236 0.000360892 133-19.4879 94.0237Z" fill="#000000" fill-rule="nonzero" fill-opacity="1" transform="matrix(1 0 0 -1 2801.5 1757.5)"/><path d="M0 0 727 0.000360892" stroke="#000000" stroke-width="12.9921" stroke-linecap="butt" stroke-linejoin="round" stroke-miterlimit="10" stroke-opacity="1" fill="none" fill-rule="evenodd" transform="matrix(-1 0 0 1 2801.5 1757.5)"/><text fill="#000000" fill-opacity="1" font-family="Roboto,Roboto_MSFontService,sans-serif" font-style="normal" font-variant="normal" font-weight="400" font-stretch="normal" font-size="64" text-anchor="start" direction="ltr" writing-mode="lr-tb" unicode-bidi="normal" text-decoration="none" transform="matrix(1 0 0 1 2775.01 1843)">PPC</text><path d="M2764 1835 2698 1769" stroke="#000000" stroke-width="6.49606" stroke-linecap="butt" stroke-linejoin="round" stroke-miterlimit="10" stroke-opacity="1" fill="none" fill-rule="evenodd"/><path d="M0 0 3309 2.00007" stroke="#000000" stroke-width="12.9921" stroke-linecap="butt" stroke-linejoin="round" stroke-miterlimit="10" stroke-opacity="1" fill="none" fill-rule="evenodd" transform="matrix(1 0 0 -1 4.49997 1886.5)"/><path d="M955.5 1367.5 1484.46 1367.5 1766.57 1705.36 2281.43 1705.36" stroke="#000000" stroke-width="12.9921" stroke-linecap="butt" stroke-linejoin="round" stroke-miterlimit="10" stroke-opacity="1" fill="none" fill-rule="evenodd"/><text fill="#000000" fill-opacity="1" font-family="Roboto,Roboto_MSFontService,sans-serif" font-style="normal" font-variant="normal" font-weight="400" font-stretch="normal" font-size="64" text-anchor="start" direction="ltr" writing-mode="lr-tb" unicode-bidi="normal" text-decoration="none" transform="matrix(1 0 0 1 1478.19 1661)">Kernel</text><text fill="#000000" fill-opacity="1" font-family="Roboto,Roboto_MSFontService,sans-serif" font-style="normal" font-variant="normal" font-weight="400" font-stretch="normal" font-size="64" text-anchor="start" direction="ltr" writing-mode="lr-tb" unicode-bidi="normal" text-decoration="none" transform="matrix(1 0 0 1 1487.08 1738)">Mode</text><text fill="#000000" fill-opacity="1" font-family="Roboto,Roboto_MSFontService,sans-serif" font-style="normal" font-variant="normal" font-weight="400" font-stretch="normal" font-size="64" text-anchor="start" direction="ltr" writing-mode="lr-tb" unicode-bidi="normal" text-decoration="none" transform="matrix(1 0 0 1 1582.75 1286)">User</text><text fill="#000000" fill-opacity="1" font-family="Roboto,Roboto_MSFontService,sans-serif" font-style="normal" font-variant="normal" font-weight="400" font-stretch="normal" font-size="64" text-anchor="start" direction="ltr" writing-mode="lr-tb" unicode-bidi="normal" text-decoration="none" transform="matrix(1 0 0 1 1566.73 1363)">Mode</text><path d="M2151.5 1705.5 3306.5 1708.5" stroke="#000000" stroke-width="12.9921" stroke-linecap="butt" stroke-linejoin="round" stroke-miterlimit="10" stroke-opacity="1" fill="none" fill-rule="evenodd"/><path d="M0.499836 1364.5 1476.5 1367.5" stroke="#000000" stroke-width="12.9921" stroke-linecap="butt" stroke-linejoin="round" stroke-miterlimit="10" stroke-opacity="1" fill="none" fill-rule="evenodd"/><path d="M813 1312 1021 1416" stroke="#000000" stroke-width="6.49606" stroke-linecap="butt" stroke-linejoin="round" stroke-miterlimit="10" stroke-opacity="1" fill="none" fill-rule="evenodd"/><text fill="#000000" fill-opacity="1" font-family="Roboto,Roboto_MSFontService,sans-serif" font-style="normal" font-variant="normal" font-weight="700" font-stretch="normal" font-size="64" text-anchor="start" direction="ltr" writing-mode="lr-tb" unicode-bidi="normal" text-decoration="none" transform="matrix(1 0 0 1 51.3211 1611)">20,000</text><text fill="#000000" fill-opacity="1" font-family="Roboto,Roboto_MSFontService,sans-serif" font-style="normal" font-variant="normal" font-weight="700" font-stretch="normal" font-size="64" text-anchor="start" direction="ltr" writing-mode="lr-tb" unicode-bidi="normal" text-decoration="none" transform="matrix(1 0 0 1 53.3377 1688)">kSLOC</text><path d="M0 0 1143 3.0001" stroke="#000000" stroke-width="12.9921" stroke-linecap="butt" stroke-linejoin="round" stroke-miterlimit="10" stroke-opacity="1" fill="none" fill-rule="evenodd" transform="matrix(1 0 0 -1 345.5 1887.5)"/></g></g></svg>