<svg width="2920" height="1448" xmlns="http://www.w3.org/2000/svg" xmlns:xlink="http://www.w3.org/1999/xlink" xml:space="preserve" overflow="hidden"><defs><linearGradient x1="2015.68" y1="1508.67" x2="2030.32" y2="1341.33" gradientUnits="userSpaceOnUse" spreadMethod="reflect" id="fill0"><stop offset="0" stop-color="#961800" stop-opacity="1"/><stop offset="0.35" stop-color="#964E43" stop-opacity="1"/><stop offset="1" stop-color="#92D050" stop-opacity="1"/></linearGradient><linearGradient x1="703" y1="1274" x2="1528" y2="1274" gradientUnits="userSpaceOnUse" spreadMethod="reflect" id="fill1"><stop offset="0" stop-color="#961800" stop-opacity="1"/><stop offset="0.33" stop-color="#92D050" stop-opacity="1"/><stop offset="1" stop-color="#92D050" stop-opacity="1"/></linearGradient></defs><g transform="translate(-146 -802)"><g><path d="M153.502 1939.06 3022.36 1940.21 3022.35 1947.08 153.499 1945.94ZM2996.75 1924.62 3029.33 1943.65 2996.73 1962.64C2995.09 1963.6 2992.99 1963.04 2992.03 1961.4 2991.08 1959.76 2991.63 1957.66 2993.27 1956.7L3020.78 1940.67 3020.78 1946.61 2993.28 1930.56C2991.64 1929.6 2991.09 1927.5 2992.05 1925.86 2993 1924.22 2995.11 1923.66 2996.75 1924.62Z" fill="#000000" fill-rule="nonzero" fill-opacity="1"/><path d="M154.073 1942.5 153.5 1997.5" stroke="#000000" stroke-width="6.875" stroke-linecap="butt" stroke-linejoin="round" stroke-miterlimit="10" stroke-opacity="1" fill="none" fill-rule="evenodd"/><text fill="#000000" fill-opacity="1" font-family="Roboto,Roboto_MSFontService,sans-serif" font-style="normal" font-variant="normal" font-weight="400" font-stretch="normal" font-size="50" text-anchor="start" direction="ltr" writing-mode="lr-tb" unicode-bidi="normal" text-decoration="none" transform="matrix(1 0 0 1 197.564 2009)">93</text><path d="M292.073 1943.5 291.5 1998.5" stroke="#000000" stroke-width="6.875" stroke-linecap="butt" stroke-linejoin="round" stroke-miterlimit="10" stroke-opacity="1" fill="none" fill-rule="evenodd"/><text fill="#000000" fill-opacity="1" font-family="Roboto,Roboto_MSFontService,sans-serif" font-style="normal" font-variant="normal" font-weight="400" font-stretch="normal" font-size="50" text-anchor="start" direction="ltr" writing-mode="lr-tb" unicode-bidi="normal" text-decoration="none" transform="matrix(1 0 0 1 331.669 2007)">94</text><path d="M431.073 1944.5 430.5 1999.5" stroke="#000000" stroke-width="6.875" stroke-linecap="butt" stroke-linejoin="round" stroke-miterlimit="10" stroke-opacity="1" fill="none" fill-rule="evenodd"/><text fill="#000000" fill-opacity="1" font-family="Roboto,Roboto_MSFontService,sans-serif" font-style="normal" font-variant="normal" font-weight="400" font-stretch="normal" font-size="50" text-anchor="start" direction="ltr" writing-mode="lr-tb" unicode-bidi="normal" text-decoration="none" transform="matrix(1 0 0 1 473.987 2008)">95</text><path d="M570.073 1946.5 569.5 2001.5" stroke="#000000" stroke-width="6.875" stroke-linecap="butt" stroke-linejoin="round" stroke-miterlimit="10" stroke-opacity="1" fill="none" fill-rule="evenodd"/><text fill="#000000" fill-opacity="1" font-family="Roboto,Roboto_MSFontService,sans-serif" font-style="normal" font-variant="normal" font-weight="400" font-stretch="normal" font-size="50" text-anchor="start" direction="ltr" writing-mode="lr-tb" unicode-bidi="normal" text-decoration="none" transform="matrix(1 0 0 1 611.176 2009)">96</text><path d="M708.073 1947.5 707.5 2002.5" stroke="#000000" stroke-width="6.875" stroke-linecap="butt" stroke-linejoin="round" stroke-miterlimit="10" stroke-opacity="1" fill="none" fill-rule="evenodd"/><text fill="#000000" fill-opacity="1" font-family="Roboto,Roboto_MSFontService,sans-serif" font-style="normal" font-variant="normal" font-weight="400" font-stretch="normal" font-size="50" text-anchor="start" direction="ltr" writing-mode="lr-tb" unicode-bidi="normal" text-decoration="none" transform="matrix(1 0 0 1 749.881 2010)">97</text><path d="M848.073 1947.5 847.5 2002.5" stroke="#000000" stroke-width="6.875" stroke-linecap="butt" stroke-linejoin="round" stroke-miterlimit="10" stroke-opacity="1" fill="none" fill-rule="evenodd"/><text fill="#000000" fill-opacity="1" font-family="Roboto,Roboto_MSFontService,sans-serif" font-style="normal" font-variant="normal" font-weight="400" font-stretch="normal" font-size="50" text-anchor="start" direction="ltr" writing-mode="lr-tb" unicode-bidi="normal" text-decoration="none" transform="matrix(1 0 0 1 886.403 2007)">98</text><path d="M986.073 1948.5 985.5 2003.5" stroke="#000000" stroke-width="6.875" stroke-linecap="butt" stroke-linejoin="round" stroke-miterlimit="10" stroke-opacity="1" fill="none" fill-rule="evenodd"/><text fill="#000000" fill-opacity="1" font-family="Roboto,Roboto_MSFontService,sans-serif" font-style="normal" font-variant="normal" font-weight="400" font-stretch="normal" font-size="50" text-anchor="start" direction="ltr" writing-mode="lr-tb" unicode-bidi="normal" text-decoration="none" transform="matrix(1 0 0 1 1024.87 2008)">99</text><path d="M1125.07 1950.5 1124.5 2005.5" stroke="#000000" stroke-width="6.875" stroke-linecap="butt" stroke-linejoin="round" stroke-miterlimit="10" stroke-opacity="1" fill="none" fill-rule="evenodd"/><text fill="#000000" fill-opacity="1" font-family="Roboto,Roboto_MSFontService,sans-serif" font-style="normal" font-variant="normal" font-weight="400" font-stretch="normal" font-size="50" text-anchor="start" direction="ltr" writing-mode="lr-tb" unicode-bidi="normal" text-decoration="none" transform="matrix(1 0 0 1 1163.73 2007)">00</text><path d="M1255.07 1943.5 1254.5 1998.5" stroke="#000000" stroke-width="6.875" stroke-linecap="butt" stroke-linejoin="round" stroke-miterlimit="10" stroke-opacity="1" fill="none" fill-rule="evenodd"/><text fill="#000000" fill-opacity="1" font-family="Roboto,Roboto_MSFontService,sans-serif" font-style="normal" font-variant="normal" font-weight="400" font-stretch="normal" font-size="50" text-anchor="start" direction="ltr" writing-mode="lr-tb" unicode-bidi="normal" text-decoration="none" transform="matrix(1 0 0 1 1292.21 2008)">01</text><path d="M1391.07 1942.5 1390.5 1997.5" stroke="#000000" stroke-width="6.875" stroke-linecap="butt" stroke-linejoin="round" stroke-miterlimit="10" stroke-opacity="1" fill="none" fill-rule="evenodd"/><text fill="#000000" fill-opacity="1" font-family="Roboto,Roboto_MSFontService,sans-serif" font-style="normal" font-variant="normal" font-weight="400" font-stretch="normal" font-size="50" text-anchor="start" direction="ltr" writing-mode="lr-tb" unicode-bidi="normal" text-decoration="none" transform="matrix(1 0 0 1 1427.96 2008)">02</text><path d="M1529.07 1943.5 1528.5 1998.5" stroke="#000000" stroke-width="6.875" stroke-linecap="butt" stroke-linejoin="round" stroke-miterlimit="10" stroke-opacity="1" fill="none" fill-rule="evenodd"/><text fill="#000000" fill-opacity="1" font-family="Roboto,Roboto_MSFontService,sans-serif" font-style="normal" font-variant="normal" font-weight="400" font-stretch="normal" font-size="50" text-anchor="start" direction="ltr" writing-mode="lr-tb" unicode-bidi="normal" text-decoration="none" transform="matrix(1 0 0 1 1568.56 2007)">03</text><path d="M1666.07 1943.5 1665.5 1998.5" stroke="#000000" stroke-width="6.875" stroke-linecap="butt" stroke-linejoin="round" stroke-miterlimit="10" stroke-opacity="1" fill="none" fill-rule="evenodd"/><text fill="#000000" fill-opacity="1" font-family="Roboto,Roboto_MSFontService,sans-serif" font-style="normal" font-variant="normal" font-weight="400" font-stretch="normal" font-size="50" text-anchor="start" direction="ltr" writing-mode="lr-tb" unicode-bidi="normal" text-decoration="none" transform="matrix(1 0 0 1 1705.2 2007)">04</text><path d="M1804.07 1943.5 1803.5 1998.5" stroke="#000000" stroke-width="6.875" stroke-linecap="butt" stroke-linejoin="round" stroke-miterlimit="10" stroke-opacity="1" fill="none" fill-rule="evenodd"/><text fill="#000000" fill-opacity="1" font-family="Roboto,Roboto_MSFontService,sans-serif" font-style="normal" font-variant="normal" font-weight="400" font-stretch="normal" font-size="50" text-anchor="start" direction="ltr" writing-mode="lr-tb" unicode-bidi="normal" text-decoration="none" transform="matrix(1 0 0 1 1840.94 2009)">05</text><path d="M1941.07 1943.5 1940.5 1998.5" stroke="#000000" stroke-width="6.875" stroke-linecap="butt" stroke-linejoin="round" stroke-miterlimit="10" stroke-opacity="1" fill="none" fill-rule="evenodd"/><text fill="#000000" fill-opacity="1" font-family="Roboto,Roboto_MSFontService,sans-serif" font-style="normal" font-variant="normal" font-weight="400" font-stretch="normal" font-size="50" text-anchor="start" direction="ltr" writing-mode="lr-tb" unicode-bidi="normal" text-decoration="none" transform="matrix(1 0 0 1 1979.41 2007)">06</text><path d="M2079.07 1943.5 2078.5 1998.5" stroke="#000000" stroke-width="6.875" stroke-linecap="butt" stroke-linejoin="round" stroke-miterlimit="10" stroke-opacity="1" fill="none" fill-rule="evenodd"/><text fill="#000000" fill-opacity="1" font-family="Roboto,Roboto_MSFontService,sans-serif" font-style="normal" font-variant="normal" font-weight="400" font-stretch="normal" font-size="50" text-anchor="start" direction="ltr" writing-mode="lr-tb" unicode-bidi="normal" text-decoration="none" transform="matrix(1 0 0 1 2117.85 2007)">07</text><path d="M2216.07 1943.5 2215.5 1998.5" stroke="#000000" stroke-width="6.875" stroke-linecap="butt" stroke-linejoin="round" stroke-miterlimit="10" stroke-opacity="1" fill="none" fill-rule="evenodd"/><text fill="#000000" fill-opacity="1" font-family="Roboto,Roboto_MSFontService,sans-serif" font-style="normal" font-variant="normal" font-weight="400" font-stretch="normal" font-size="50" text-anchor="start" direction="ltr" writing-mode="lr-tb" unicode-bidi="normal" text-decoration="none" transform="matrix(1 0 0 1 2257 2007)">08</text><path d="M2354.07 1943.5 2353.5 1998.5" stroke="#000000" stroke-width="6.875" stroke-linecap="butt" stroke-linejoin="round" stroke-miterlimit="10" stroke-opacity="1" fill="none" fill-rule="evenodd"/><text fill="#000000" fill-opacity="1" font-family="Roboto,Roboto_MSFontService,sans-serif" font-style="normal" font-variant="normal" font-weight="400" font-stretch="normal" font-size="50" text-anchor="start" direction="ltr" writing-mode="lr-tb" unicode-bidi="normal" text-decoration="none" transform="matrix(1 0 0 1 2392.68 2007)">09</text><path d="M2491.07 1943.5 2490.5 1998.5" stroke="#000000" stroke-width="6.875" stroke-linecap="butt" stroke-linejoin="round" stroke-miterlimit="10" stroke-opacity="1" fill="none" fill-rule="evenodd"/><text fill="#000000" fill-opacity="1" font-family="Roboto,Roboto_MSFontService,sans-serif" font-style="normal" font-variant="normal" font-weight="400" font-stretch="normal" font-size="50" text-anchor="start" direction="ltr" writing-mode="lr-tb" unicode-bidi="normal" text-decoration="none" transform="matrix(1 0 0 1 2528.4 2007)">10</text><path d="M2629.07 1943.5 2628.5 1998.5" stroke="#000000" stroke-width="6.875" stroke-linecap="butt" stroke-linejoin="round" stroke-miterlimit="10" stroke-opacity="1" fill="none" fill-rule="evenodd"/><text fill="#000000" fill-opacity="1" font-family="Roboto,Roboto_MSFontService,sans-serif" font-style="normal" font-variant="normal" font-weight="400" font-stretch="normal" font-size="50" text-anchor="start" direction="ltr" writing-mode="lr-tb" unicode-bidi="normal" text-decoration="none" transform="matrix(1 0 0 1 2668.32 2009)">11</text><path d="M2766.07 1943.5 2765.5 1998.5" stroke="#000000" stroke-width="6.875" stroke-linecap="butt" stroke-linejoin="round" stroke-miterlimit="10" stroke-opacity="1" fill="none" fill-rule="evenodd"/><text fill="#000000" fill-opacity="1" font-family="Roboto,Roboto_MSFontService,sans-serif" font-style="normal" font-variant="normal" font-weight="400" font-stretch="normal" font-size="50" text-anchor="start" direction="ltr" writing-mode="lr-tb" unicode-bidi="normal" text-decoration="none" transform="matrix(1 0 0 1 2806.76 2007)">12</text><path d="M2904.07 1943.5 2903.5 1998.5" stroke="#000000" stroke-width="6.875" stroke-linecap="butt" stroke-linejoin="round" stroke-miterlimit="10" stroke-opacity="1" fill="none" fill-rule="evenodd"/><text fill="#000000" fill-opacity="1" font-family="Roboto,Roboto_MSFontService,sans-serif" font-style="normal" font-variant="normal" font-weight="400" font-stretch="normal" font-size="50" text-anchor="start" direction="ltr" writing-mode="lr-tb" unicode-bidi="normal" text-decoration="none" transform="matrix(1 0 0 1 2943.98 2007)">13</text><path d="M153 1397.67C153 1390.12 159.119 1384 166.667 1384L689.333 1384C696.881 1384 703 1390.12 703 1397.67L703 1452.33C703 1459.88 696.881 1466 689.333 1466L166.667 1466C159.119 1466 153 1459.88 153 1452.33Z" fill="#961800" fill-rule="evenodd" fill-opacity="1"/><text fill="#FFFFFF" fill-opacity="1" font-family="Roboto,Roboto_MSFontService,sans-serif" font-style="normal" font-variant="normal" font-weight="400" font-stretch="normal" font-size="50" text-anchor="start" direction="ltr" writing-mode="lr-tb" unicode-bidi="normal" text-decoration="none" transform="matrix(1 0 0 1 189.747 1443)">L3 </text><text fill="#FFFFFF" fill-opacity="1" font-family="Times New Roman,Times New Roman_MSFontService,sans-serif" font-style="normal" font-variant="normal" font-weight="700" font-stretch="normal" font-size="50" text-anchor="start" direction="ltr" writing-mode="lr-tb" unicode-bidi="normal" text-decoration="none" transform="matrix(1 0 0 1 257.352 1443)">→</text><text fill="#FFFFFF" fill-opacity="1" font-family="Roboto,Roboto_MSFontService,sans-serif" font-style="normal" font-variant="normal" font-weight="400" font-stretch="normal" font-size="50" text-anchor="start" direction="ltr" writing-mode="lr-tb" unicode-bidi="normal" text-decoration="none" transform="matrix(1 0 0 1 320.372 1443)">L4</text><path d="M840 1397.67C840 1390.12 846.119 1384 853.667 1384L1019.33 1384C1026.88 1384 1033 1390.12 1033 1397.67L1033 1452.33C1033 1459.88 1026.88 1466 1019.33 1466L853.667 1466C846.119 1466 840 1459.88 840 1452.33Z" fill="#961800" fill-rule="evenodd" fill-opacity="1"/><text fill="#FFFFFF" fill-opacity="1" font-family="Roboto,Roboto_MSFontService,sans-serif" font-style="normal" font-variant="normal" font-weight="400" font-stretch="normal" font-size="50" text-anchor="start" direction="ltr" writing-mode="lr-tb" unicode-bidi="normal" text-decoration="none" transform="matrix(1 0 0 1 877.247 1443)">“X”</text><path d="M1115 1397.67C1115 1390.12 1121.12 1384 1128.67 1384L1404.33 1384C1411.88 1384 1418 1390.12 1418 1397.67L1418 1452.33C1418 1459.88 1411.88 1466 1404.33 1466L1128.67 1466C1121.12 1466 1115 1459.88 1115 1452.33Z" fill="#961800" fill-rule="evenodd" fill-opacity="1"/><text fill="#FFFFFF" fill-opacity="1" font-family="Roboto,Roboto_MSFontService,sans-serif" font-style="normal" font-variant="normal" font-weight="400" font-stretch="normal" font-size="50" text-anchor="start" direction="ltr" writing-mode="lr-tb" unicode-bidi="normal" text-decoration="none" transform="matrix(1 0 0 1 1152.25 1443)">Hazelnut</text><path d="M1528 1397.67C1528 1390.12 1534.12 1384 1541.67 1384L2504.33 1384C2511.88 1384 2518 1390.12 2518 1397.67L2518 1452.33C2518 1459.88 2511.88 1466 2504.33 1466L1541.67 1466C1534.12 1466 1528 1459.88 1528 1452.33Z" fill="url(#fill0)" fill-rule="evenodd"/><text fill="#FFFFFF" fill-opacity="1" font-family="Roboto,Roboto_MSFontService,sans-serif" font-style="normal" font-variant="normal" font-weight="400" font-stretch="normal" font-size="50" text-anchor="start" direction="ltr" writing-mode="lr-tb" unicode-bidi="normal" text-decoration="none" transform="matrix(1 0 0 1 1564.75 1443)">Pistachio</text><path d="M703 1246.67C703 1239.12 709.119 1233 716.667 1233L1514.33 1233C1521.88 1233 1528 1239.12 1528 1246.67L1528 1301.33C1528 1308.88 1521.88 1315 1514.33 1315L716.667 1315C709.119 1315 703 1308.88 703 1301.33Z" fill="url(#fill1)" fill-rule="evenodd"/><text fill="#FFFFFF" fill-opacity="1" font-family="Roboto,Roboto_MSFontService,sans-serif" font-style="normal" font-variant="normal" font-weight="400" font-stretch="normal" font-size="50" text-anchor="start" direction="ltr" writing-mode="lr-tb" unicode-bidi="normal" text-decoration="none" transform="matrix(1 0 0 1 739.747 1292)">L4/Alpha</text><path d="M703 1105.67C703 1098.12 709.119 1092 716.667 1092L1514.33 1092C1521.88 1092 1528 1098.12 1528 1105.67L1528 1160.33C1528 1167.88 1521.88 1174 1514.33 1174L716.667 1174C709.119 1174 703 1167.88 703 1160.33Z" fill="#A5D062" fill-rule="evenodd" fill-opacity="1"/><text fill="#000000" fill-opacity="1" font-family="Roboto,Roboto_MSFontService,sans-serif" font-style="normal" font-variant="normal" font-weight="400" font-stretch="normal" font-size="50" text-anchor="start" direction="ltr" writing-mode="lr-tb" unicode-bidi="normal" text-decoration="none" transform="matrix(1 0 0 1 739.747 1151)">L4/MIPS</text><path d="M2353 821.834C2353 814.194 2359.19 808 2366.83 808L2999.17 808C3006.81 808 3013 814.194 3013 821.834L3013 877.166C3013 884.806 3006.81 891 2999.17 891L2366.83 891C2359.19 891 2353 884.806 2353 877.166Z" fill="#A5D062" fill-rule="evenodd" fill-opacity="1"/><text fill="#000000" fill-opacity="1" font-family="Roboto,Roboto_MSFontService,sans-serif" font-style="normal" font-variant="normal" font-weight="400" font-stretch="normal" font-size="50" text-anchor="start" direction="ltr" writing-mode="lr-tb" unicode-bidi="normal" text-decoration="none" transform="matrix(1 0 0 1 2389.75 867)">seL4</text><path d="M2078 1105.67C2078 1098.12 2084.12 1092 2091.67 1092L2546.33 1092C2553.88 1092 2560 1098.12 2560 1105.67L2560 1160.33C2560 1167.88 2553.88 1174 2546.33 1174L2091.67 1174C2084.12 1174 2078 1167.88 2078 1160.33Z" fill="#789A47" fill-rule="evenodd" fill-opacity="1"/><text fill="#FFFFFF" fill-opacity="1" font-family="Roboto,Roboto_MSFontService,sans-serif" font-style="normal" font-variant="normal" font-weight="400" font-stretch="normal" font-size="50" text-anchor="start" direction="ltr" writing-mode="lr-tb" unicode-bidi="normal" text-decoration="none" transform="matrix(1 0 0 1 2114.75 1151)">OKL4 Microkernel</text><path d="M2353 975.667C2353 968.119 2359.12 962 2366.67 962L2999.33 962C3006.88 962 3013 968.119 3013 975.667L3013 1030.33C3013 1037.88 3006.88 1044 2999.33 1044L2366.67 1044C2359.12 1044 2353 1037.88 2353 1030.33Z" fill="#789A47" fill-rule="evenodd" fill-opacity="1"/><text fill="#FFFFFF" fill-opacity="1" font-family="Roboto,Roboto_MSFontService,sans-serif" font-style="normal" font-variant="normal" font-weight="400" font-stretch="normal" font-size="50" text-anchor="start" direction="ltr" writing-mode="lr-tb" unicode-bidi="normal" text-decoration="none" transform="matrix(1 0 0 1 2389.75 1021)">OKL4 Microvisor</text><path d="M2461 1298.67C2461 1291.12 2467.12 1285 2474.67 1285L2805.33 1285C2812.88 1285 2819 1291.12 2819 1298.67L2819 1353.33C2819 1360.88 2812.88 1367 2805.33 1367L2474.67 1367C2467.12 1367 2461 1360.88 2461 1353.33Z" fill="#FFD271" fill-rule="evenodd" fill-opacity="1"/><text fill="#000000" fill-opacity="1" font-family="Roboto,Roboto_MSFontService,sans-serif" font-style="normal" font-variant="normal" font-weight="400" font-stretch="normal" font-size="50" text-anchor="start" direction="ltr" writing-mode="lr-tb" unicode-bidi="normal" text-decoration="none" transform="matrix(1 0 0 1 2497.58 1344)">Codezero</text><path d="M1060 1834.67C1060 1827.12 1066.12 1821 1073.67 1821L2999.33 1821C3006.88 1821 3013 1827.12 3013 1834.67L3013 1889.33C3013 1896.88 3006.88 1903 2999.33 1903L1073.67 1903C1066.12 1903 1060 1896.88 1060 1889.33Z" fill="#FFD271" fill-rule="evenodd" fill-opacity="1"/><text fill="#000000" fill-opacity="1" font-family="Roboto,Roboto_MSFontService,sans-serif" font-style="normal" font-variant="normal" font-weight="400" font-stretch="normal" font-size="50" text-anchor="start" direction="ltr" writing-mode="lr-tb" unicode-bidi="normal" text-decoration="none" transform="matrix(1 0 0 1 1097.25 1880)">P4 </text><text fill="#000000" fill-opacity="1" font-family="Times New Roman,Times New Roman_MSFontService,sans-serif" font-style="normal" font-variant="normal" font-weight="700" font-stretch="normal" font-size="50" text-anchor="start" direction="ltr" writing-mode="lr-tb" unicode-bidi="normal" text-decoration="none" transform="matrix(1 0 0 1 1170.01 1880)">→</text><text fill="#000000" fill-opacity="1" font-family="Roboto,Roboto_MSFontService,sans-serif" font-style="normal" font-variant="normal" font-weight="400" font-stretch="normal" font-size="50" text-anchor="start" direction="ltr" writing-mode="lr-tb" unicode-bidi="normal" text-decoration="none" transform="matrix(1 0 0 1 1233.03 1880)">PikeOS</text><path d="M950 1579.67C950 1572.12 956.119 1566 963.667 1566L2119.33 1566C2126.88 1566 2133 1572.12 2133 1579.67L2133 1634.33C2133 1641.88 2126.88 1648 2119.33 1648L963.667 1648C956.119 1648 950 1641.88 950 1634.33Z" fill="#46668A" fill-rule="evenodd" fill-opacity="1"/><text fill="#FFFFFF" fill-opacity="1" font-family="Roboto,Roboto_MSFontService,sans-serif" font-style="normal" font-variant="normal" font-weight="400" font-stretch="normal" font-size="50" text-anchor="start" direction="ltr" writing-mode="lr-tb" unicode-bidi="normal" text-decoration="none" transform="matrix(1 0 0 1 987.247 1625)">Fiasco</text><path d="M2353 1579.67C2353 1572.12 2359.12 1566 2366.67 1566L2999.33 1566C3006.88 1566 3013 1572.12 3013 1579.67L3013 1634.33C3013 1641.88 3006.88 1648 2999.33 1648L2366.67 1648C2359.12 1648 2353 1641.88 2353 1634.33Z" fill="#46668A" fill-rule="evenodd" fill-opacity="1"/><text fill="#FFFFFF" fill-opacity="1" font-family="Roboto,Roboto_MSFontService,sans-serif" font-style="normal" font-variant="normal" font-weight="400" font-stretch="normal" font-size="50" text-anchor="start" direction="ltr" writing-mode="lr-tb" unicode-bidi="normal" text-decoration="none" transform="matrix(1 0 0 1 2389.75 1625)">Fiasco.OC</text><path d="M1803 967.834C1803 960.193 1809.19 954 1816.83 954L2188.17 954C2195.81 954 2202 960.193 2202 967.834L2202 1023.17C2202 1030.81 2195.81 1037 2188.17 1037L1816.83 1037C1809.19 1037 1803 1030.81 1803 1023.17Z" fill="#A5D062" fill-rule="evenodd" fill-opacity="1"/><text fill="#000000" fill-opacity="1" font-family="Roboto,Roboto_MSFontService,sans-serif" font-style="normal" font-variant="normal" font-weight="400" font-stretch="normal" font-size="50" text-anchor="start" direction="ltr" writing-mode="lr-tb" unicode-bidi="normal" text-decoration="none" transform="matrix(1 0 0 1 1839.75 1013)">L4</text><text fill="#000000" fill-opacity="1" font-family="Roboto,Roboto_MSFontService,sans-serif" font-style="normal" font-variant="normal" font-weight="400" font-stretch="normal" font-size="50" text-anchor="start" direction="ltr" writing-mode="lr-tb" unicode-bidi="normal" text-decoration="none" transform="matrix(1 0 0 1 1894.75 1013)">-</text><text fill="#000000" fill-opacity="1" font-family="Roboto,Roboto_MSFontService,sans-serif" font-style="normal" font-variant="normal" font-weight="400" font-stretch="normal" font-size="50" text-anchor="start" direction="ltr" writing-mode="lr-tb" unicode-bidi="normal" text-decoration="none" transform="matrix(1 0 0 1 1908.5 1013)">embedded</text><path d="M703 1419.84 830.291 1419.84 830.291 1430.16 703 1430.16ZM801.951 1402.5 840.524 1425 801.951 1447.5 801.951 1447.5C799.491 1448.94 796.334 1448.1 794.899 1445.65 793.464 1443.19 794.295 1440.03 796.755 1438.59L796.755 1438.59 827.693 1420.55 827.692 1429.45 796.755 1411.41C794.295 1409.97 793.464 1406.81 794.899 1404.36 796.334 1401.9 799.491 1401.06 801.951 1402.5Z" fill="#324965" fill-rule="nonzero" fill-opacity="1"/><path d="M1033 1419.84 1105.29 1419.84 1105.29 1430.16 1033 1430.16ZM1076.95 1402.5 1115.52 1425 1076.95 1447.5C1074.49 1448.94 1071.33 1448.1 1069.9 1445.65 1068.46 1443.19 1069.3 1440.03 1071.76 1438.59L1102.69 1420.55 1102.69 1429.45 1071.76 1411.41C1069.3 1409.97 1068.46 1406.81 1069.9 1404.36 1071.33 1401.9 1074.49 1401.06 1076.95 1402.5Z" fill="#964E43" fill-rule="nonzero" fill-opacity="1"/><path d="M1.91315-4.78819 267.432 101.302 263.606 110.878-1.91315 4.78819ZM247.551 74.6805 275.022 109.887 230.854 116.47C228.038 116.889 225.414 114.946 224.994 112.13 224.574 109.313 226.518 106.69 229.334 106.27L264.759 100.99 261.454 109.262 239.421 81.0244C237.669 78.7792 238.069 75.5391 240.314 73.7872 242.559 72.0354 245.8 72.4353 247.551 74.6805Z" fill="#324965" fill-rule="nonzero" fill-opacity="1" transform="matrix(1 0 0 -1 428 1383.88)"/><path d="M3.47253-3.81162 270.925 239.847 263.98 247.471-3.47253 3.81162ZM261.657 207.941 275.018 250.551 231.35 241.207C228.566 240.611 226.791 237.87 227.387 235.086 227.983 232.301 230.724 230.527 233.508 231.123L268.532 238.617 262.533 245.202 251.817 211.026C250.965 208.309 252.477 205.415 255.194 204.563 257.912 203.711 260.805 205.223 261.657 207.941Z" fill="#789A47" fill-rule="nonzero" fill-opacity="1" transform="matrix(1 0 0 -1 428 1383.53)"/><path d="M706.054 1420.85 945.328 1596.71 939.22 1605.02 699.946 1429.15ZM932.764 1565.95 950.519 1606.92 906.113 1602.21C903.281 1601.91 901.229 1599.37 901.53 1596.54 901.83 1593.71 904.37 1591.65 907.201 1591.96L942.818 1595.74 937.542 1602.91 923.302 1570.05C922.17 1567.44 923.37 1564.4 925.983 1563.27 928.596 1562.14 931.632 1563.34 932.764 1565.95Z" fill="#789A47" fill-rule="nonzero" fill-opacity="1"/><path d="M2133 1601.84 2342.79 1601.84 2342.79 1612.16 2133 1612.16ZM2314.45 1584.5 2353.02 1607 2314.45 1629.5C2311.99 1630.94 2308.83 1630.11 2307.4 1627.65 2305.96 1625.19 2306.8 1622.03 2309.26 1620.59L2340.19 1602.55 2340.19 1611.45 2309.26 1593.41C2306.8 1591.97 2305.96 1588.82 2307.4 1586.36 2308.83 1583.9 2311.99 1583.06 2314.45 1584.5Z" fill="#324965" fill-rule="nonzero" fill-opacity="1"/><path d="M4.78651-1.91735 159.614 384.598 150.041 388.432-4.78651 1.91735ZM165.177 351.842 158.633 396.016 123.403 368.576C121.156 366.826 120.753 363.586 122.503 361.339 124.253 359.093 127.493 358.69 129.74 360.44L157.997 382.448 149.728 385.761 154.976 350.331C155.394 347.514 158.015 345.569 160.832 345.986 163.649 346.403 165.595 349.025 165.177 351.842Z" fill="#324965" fill-rule="nonzero" fill-opacity="1" transform="matrix(1 0 0 -1 1644 1390.99)"/><path d="M2007.07 1033.83 2075.96 1122.33 2067.82 1128.66 1998.93 1040.17ZM2072.23 1089.31 2078.17 1133.57 2036.72 1116.95C2034.08 1115.89 2032.8 1112.89 2033.86 1110.25 2034.92 1107.6 2037.92 1106.32 2040.56 1107.38L2073.8 1120.71 2066.78 1126.18 2062.01 1090.68C2061.63 1087.86 2063.62 1085.26 2066.44 1084.88 2069.26 1084.51 2071.86 1086.49 2072.23 1089.31Z" fill="#324965" fill-rule="nonzero" fill-opacity="1"/><path d="M2322.77 1170.48 2457.63 1314.85 2450.09 1321.89 2315.23 1177.52ZM2450.96 1282.3 2460.85 1325.85 2418.07 1313.02C2415.34 1312.2 2413.8 1309.33 2414.61 1306.6 2415.43 1303.87 2418.31 1302.33 2421.03 1303.14L2455.34 1313.43 2448.83 1319.51 2440.9 1284.59 2440.9 1284.59C2440.27 1281.81 2442.01 1279.05 2444.79 1278.42 2447.56 1277.79 2450.33 1279.53 2450.96 1282.3Z" fill="#789A47" fill-rule="nonzero" fill-opacity="1"/><path d="M4.81464-1.84557 35.1558 77.3071 25.5265 80.9983-4.81464 1.84557ZM41.2077 44.6371 34.0039 88.708-0.812408 60.7444C-3.03266 58.9612-3.38692 55.7157-1.60367 53.4955 0.179578 51.2752 3.42506 50.921 5.64531 52.7042L33.57 75.1326 25.2524 78.3209 31.0302 42.9736 31.0302 42.9736C31.4896 40.1631 34.1403 38.2572 36.9508 38.7166 39.7612 39.176 41.6671 41.8267 41.2077 44.6371Z" fill="#324965" fill-rule="nonzero" fill-opacity="1" transform="matrix(1 0 0 -1 2319 1091.69)"/><path d="M706.992 1421.74 1058.03 1851.08 1050.05 1857.6 699.008 1428.26ZM1053.52 1818.16 1060.52 1862.26 1018.68 1846.64C1016.01 1845.65 1014.66 1842.68 1015.65 1840.01 1016.65 1837.34 1019.62 1835.98 1022.29 1836.98L1055.84 1849.51 1048.95 1855.15 1043.33 1819.77C1042.89 1816.96 1044.81 1814.32 1047.62 1813.87 1050.43 1813.43 1053.07 1815.34 1053.52 1818.16Z" fill="#789A47" fill-rule="nonzero" fill-opacity="1"/><path d="M2490 1708.83C2490 1701.19 2496.19 1695 2503.83 1695L2999.17 1695C3006.81 1695 3013 1701.19 3013 1708.83L3013 1764.17C3013 1771.81 3006.81 1778 2999.17 1778L2503.83 1778C2496.19 1778 2490 1771.81 2490 1764.17Z" fill="#46668A" fill-rule="evenodd" fill-opacity="1"/><text fill="#FFFFFF" fill-opacity="1" font-family="Roboto,Roboto_MSFontService,sans-serif" font-style="normal" font-variant="normal" font-weight="400" font-stretch="normal" font-size="50" text-anchor="start" direction="ltr" writing-mode="lr-tb" unicode-bidi="normal" text-decoration="none" transform="matrix(1 0 0 1 2527.25 1754)">NOVA</text><rect x="169" y="1612" width="509" height="246" fill="#DEE3EA" fill-opacity="1"/><path d="M197 1697.84 637.87 1697.84 637.87 1708.16 197 1708.16ZM609.531 1680.5 648.104 1703 609.531 1725.5C607.071 1726.94 603.914 1726.1 602.479 1723.65 601.044 1721.19 601.875 1718.03 604.335 1716.59L635.272 1698.55 635.272 1707.45 604.335 1689.41C601.875 1687.97 601.044 1684.82 602.479 1682.36 603.914 1679.9 607.071 1679.06 609.531 1680.5Z" fill="#789A47" fill-rule="nonzero" fill-opacity="1"/><text fill="#000000" fill-opacity="1" font-family="Roboto,Roboto_MSFontService,sans-serif" font-style="normal" font-variant="normal" font-weight="400" font-stretch="normal" font-size="50" text-anchor="start" direction="ltr" writing-mode="lr-tb" unicode-bidi="normal" text-decoration="none" transform="matrix(1 0 0 1 210.555 1680)">API Inheritance</text><path d="M4.12533e-06-5.15625 440.87-5.1559 440.87 5.1566-4.12533e-06 5.15625ZM412.531-22.5004 451.104 0.000358726 412.531 22.5011C410.071 23.9359 406.914 23.1051 405.479 20.6453 404.044 18.1855 404.875 15.0282 407.335 13.5933L438.272-4.45351 438.272 4.45421 407.335-13.5927C404.875-15.0276 404.044-18.1848 405.479-20.6446 406.914-23.1044 410.071-23.9353 412.531-22.5004Z" fill="#324965" fill-rule="nonzero" fill-opacity="1" transform="matrix(1 0 0 -1 197 1816)"/><text fill="#000000" fill-opacity="1" font-family="Roboto,Roboto_MSFontService,sans-serif" font-style="normal" font-variant="normal" font-weight="400" font-stretch="normal" font-size="50" text-anchor="start" direction="ltr" writing-mode="lr-tb" unicode-bidi="normal" text-decoration="none" transform="matrix(1 0 0 1 208.708 1792)">Code Inheritance</text><rect x="236" y="2076" width="2709" height="170" fill="#DEE3EA" fill-opacity="1"/><path d="M562 2135.67C562 2128.12 568.119 2122 575.667 2122L1145.33 2122C1152.88 2122 1159 2128.12 1159 2135.67L1159 2190.33C1159 2197.88 1152.88 2204 1145.33 2204L575.667 2204C568.119 2204 562 2197.88 562 2190.33Z" fill="#961800" fill-rule="evenodd" fill-opacity="1"/><text fill="#FFFFFF" fill-opacity="1" font-family="Roboto,Roboto_MSFontService,sans-serif" font-style="normal" font-variant="normal" font-weight="400" font-stretch="normal" font-size="50" text-anchor="start" direction="ltr" writing-mode="lr-tb" unicode-bidi="normal" text-decoration="none" transform="matrix(1 0 0 1 594.778 2181)">GMD/IBM/TU Karlsruhe</text><path d="M1552 2137C1552 2129.82 1557.82 2124 1565 2124L2094 2124C2101.18 2124 2107 2129.82 2107 2137L2107 2189C2107 2196.18 2101.18 2202 2094 2202L1565 2202C1557.82 2202 1552 2196.18 1552 2189Z" fill="#A5D062" fill-rule="evenodd" fill-opacity="1"/><text fill="#000000" fill-opacity="1" font-family="Roboto,Roboto_MSFontService,sans-serif" font-style="normal" font-variant="normal" font-weight="400" font-stretch="normal" font-size="50" text-anchor="start" direction="ltr" writing-mode="lr-tb" unicode-bidi="normal" text-decoration="none" transform="matrix(1 0 0 1 1583.96 2181)">UNSW/NICTA/Data61</text><path d="M1193 2134.83C1193 2127.19 1199.19 2121 1206.83 2121L1504.17 2121C1511.81 2121 1518 2127.19 1518 2134.83L1518 2190.17C1518 2197.81 1511.81 2204 1504.17 2204L1206.83 2204C1199.19 2204 1193 2197.81 1193 2190.17Z" fill="#46668A" fill-rule="evenodd" fill-opacity="1"/><text fill="#FFFFFF" fill-opacity="1" font-family="Roboto,Roboto_MSFontService,sans-serif" font-style="normal" font-variant="normal" font-weight="400" font-stretch="normal" font-size="50" text-anchor="start" direction="ltr" writing-mode="lr-tb" unicode-bidi="normal" text-decoration="none" transform="matrix(1 0 0 1 1224.38 2180)">TU Dresden</text><path d="M2431 2138.67C2431 2131.12 2437.12 2125 2444.67 2125L2880.33 2125C2887.88 2125 2894 2131.12 2894 2138.67L2894 2193.33C2894 2200.88 2887.88 2207 2880.33 2207L2444.67 2207C2437.12 2207 2431 2200.88 2431 2193.33Z" fill="#FFD271" fill-rule="evenodd" fill-opacity="1"/><text fill="#000000" fill-opacity="1" font-family="Roboto,Roboto_MSFontService,sans-serif" font-style="normal" font-variant="normal" font-weight="400" font-stretch="normal" font-size="50" text-anchor="start" direction="ltr" writing-mode="lr-tb" unicode-bidi="normal" text-decoration="none" transform="matrix(1 0 0 1 2456.33 2184)">Commercial Clone</text><path d="M2140 2138.67C2140 2131.12 2146.12 2125 2153.67 2125L2379.33 2125C2386.88 2125 2393 2131.12 2393 2138.67L2393 2193.33C2393 2200.88 2386.88 2207 2379.33 2207L2153.67 2207C2146.12 2207 2140 2200.88 2140 2193.33Z" fill="#789A47" fill-rule="evenodd" fill-opacity="1"/><text fill="#FFFFFF" fill-opacity="1" font-family="Roboto,Roboto_MSFontService,sans-serif" font-style="normal" font-variant="normal" font-weight="400" font-stretch="normal" font-size="50" text-anchor="start" direction="ltr" writing-mode="lr-tb" unicode-bidi="normal" text-decoration="none" transform="matrix(1 0 0 1 2172.75 2184)">OK Labs</text><text fill="#000000" fill-opacity="1" font-family="Roboto,Roboto_MSFontService,sans-serif" font-style="normal" font-variant="normal" font-weight="400" font-stretch="normal" font-size="50" text-anchor="start" direction="ltr" writing-mode="lr-tb" unicode-bidi="normal" text-decoration="none" transform="matrix(1 0 0 1 287.283 2181)">Creators:</text></g></g></svg>