<svg width="1718" height="908" xmlns="http://www.w3.org/2000/svg" xmlns:xlink="http://www.w3.org/1999/xlink" xml:space="preserve" overflow="hidden"><g transform="translate(-660 -884)"><g><path d="M891.229 1102.5 891.229 1183.32 879.771 1183.32 879.771 1102.5ZM902.688 1177.59 885.5 1211.96 868.313 1177.59Z" fill="#789A47" fill-rule="nonzero" fill-opacity="1"/><rect x="680" y="1212" width="409" height="233" fill="#A5D062" fill-opacity="1"/><text fill="#000000" fill-opacity="1" font-family="Roboto,Roboto_MSFontService,sans-serif" font-style="normal" font-variant="normal" font-weight="400" font-stretch="normal" font-size="83" text-anchor="start" direction="ltr" writing-mode="lr-tb" unicode-bidi="normal" text-decoration="none" transform="matrix(1 0 0 1 713.454 1307)">Control </text><text fill="#000000" fill-opacity="1" font-family="Roboto,Roboto_MSFontService,sans-serif" font-style="normal" font-variant="normal" font-weight="400" font-stretch="normal" font-size="83" text-anchor="start" direction="ltr" writing-mode="lr-tb" unicode-bidi="normal" text-decoration="none" transform="matrix(1 0 0 1 713.454 1406)">loop</text><path d="M1021.29 1263.57 1018.01 1265.27 1015.4 1266.78 1013.29 1268.16 1011.69 1269.38 1010.58 1270.43 1009.95 1271.23 1010.43 1270.54 1009.78 1271.69 1010.22 1270.63 1009.93 1271.7 1009.98 1269.52 1010.4 1271.44 1009.2 1269.21 1010.8 1270.85 1009.69 1270.01 1012.3 1271.42 1011.63 1271.13 1015.08 1272.32 1018.79 1273.23 1023.14 1274.06 1032.9 1275.48 1037.83 1276.11 1042.65 1276.74 1047.14 1277.39 1051.16 1278.1C1052.85 1278.4 1054.23 1279.62 1054.73 1281.26L1055.88 1284.96 1056.71 1288.25 1057.19 1291.1 1057.31 1293.7C1057.32 1294 1057.3 1294.3 1057.25 1294.59L1056.98 1296.19C1056.92 1296.58 1056.81 1296.95 1056.65 1297.31L1056.07 1298.6C1055.84 1299.11 1055.52 1299.58 1055.12 1299.97L1053.1 1301.99C1052.84 1302.25 1052.55 1302.48 1052.23 1302.67L1049.17 1304.5 1045.21 1306.86 1043.22 1308.27 1041.04 1310.05 1038.7 1312.28 1036.22 1315.06 1035.83 1308.53 1037.87 1310.31 1040.63 1312.61 1043.88 1315.57 1047.03 1319.03C1047.22 1319.25 1047.39 1319.48 1047.54 1319.73L1049.54 1323.05C1049.73 1323.36 1049.88 1323.7 1049.99 1324.06L1050.51 1325.74C1050.62 1326.08 1050.68 1326.43 1050.7 1326.79L1050.82 1328.47C1050.85 1328.9 1050.81 1329.33 1050.72 1329.76L1050.36 1331.41C1050.26 1331.85 1050.1 1332.28 1049.88 1332.67L1048.97 1334.29C1048.78 1334.64 1048.54 1334.96 1048.26 1335.24L1046.74 1336.8C1046.52 1337.03 1046.28 1337.23 1046.03 1337.4L1043.83 1338.89C1043.57 1339.06 1043.3 1339.21 1043.01 1339.33L1039.63 1340.72 1035.19 1342.14 1026.1 1344.36 1021.9 1345.21 1018.52 1345.83 1016.22 1346.22 1015.57 1346.33 1015.34 1346.36 1018.95 1343.36 1016.99 1348.88 1017.11 1346.21 1018.74 1352.54 1009.86 1354.82 1008.24 1348.49C1008.01 1347.61 1008.05 1346.68 1008.35 1345.82L1010.31 1340.3C1010.87 1338.72 1012.26 1337.57 1013.92 1337.3L1014.11 1337.27 1014.69 1337.18 1016.87 1336.81 1020.1 1336.22 1023.94 1335.45 1032.43 1333.4 1036.13 1332.25 1039.51 1330.86 1038.69 1331.3 1040.89 1329.81 1040.17 1330.41 1041.69 1328.85 1040.98 1329.8 1041.88 1328.19 1041.4 1329.45 1041.77 1327.79 1041.67 1329.08 1041.56 1327.4 1041.75 1328.45 1041.23 1326.76 1041.68 1327.77 1039.69 1324.45 1040.21 1325.16 1037.71 1322.34 1034.76 1319.65 1031.84 1317.22 1029.8 1315.43C1028.88 1314.62 1028.31 1313.48 1028.24 1312.25 1028.17 1311.02 1028.59 1309.82 1029.42 1308.91L1032.4 1305.63 1035.27 1302.93 1037.97 1300.76 1040.52 1298.98 1044.46 1296.64 1047.51 1294.81 1046.63 1295.5 1048.65 1293.48 1047.7 1294.86 1048.28 1293.57 1047.94 1294.68 1048.21 1293.08 1048.15 1293.97 1048.15 1292.58 1047.82 1290.48 1047.12 1287.67 1045.98 1283.96 1049.55 1287.12 1045.83 1286.46 1041.47 1285.83 1036.67 1285.2 1031.57 1284.55 1021.41 1283.06 1016.57 1282.12 1012.07 1280.98 1008.62 1279.78C1008.39 1279.7 1008.17 1279.6 1007.95 1279.49L1005.34 1278.08C1004.93 1277.86 1004.56 1277.58 1004.23 1277.24L1002.63 1275.6C1002.03 1274.99 1001.62 1274.21 1001.44 1273.38L1001.02 1271.46C1000.87 1270.74 1000.89 1270 1001.08 1269.28L1001.37 1268.22C1001.47 1267.85 1001.62 1267.49 1001.81 1267.16L1002.46 1266.01C1002.6 1265.77 1002.76 1265.54 1002.94 1265.32L1004.39 1263.66 1006.16 1262.07 1008.3 1260.47 1010.82 1258.84 1013.78 1257.14 1017.06 1255.43ZM1024.95 1343.85 1023.72 1374.57 999.883 1355.16Z" fill="#000000" fill-rule="nonzero" fill-opacity="1"/><text fill="#000000" fill-opacity="1" font-family="Roboto,Roboto_MSFontService,sans-serif" font-style="normal" font-variant="normal" font-weight="400" font-stretch="normal" font-size="73" text-anchor="start" direction="ltr" writing-mode="lr-tb" unicode-bidi="normal" text-decoration="none" transform="matrix(1 0 0 1 770.979 978)">Sensor</text><text fill="#000000" fill-opacity="1" font-family="Roboto,Roboto_MSFontService,sans-serif" font-style="normal" font-variant="normal" font-weight="400" font-stretch="normal" font-size="73" text-anchor="start" direction="ltr" writing-mode="lr-tb" unicode-bidi="normal" text-decoration="none" transform="matrix(1 0 0 1 743.479 1066)">readings</text><text fill="#000000" fill-opacity="1" font-family="Roboto,Roboto_MSFontService,sans-serif" font-style="normal" font-variant="normal" font-weight="400" font-stretch="normal" font-size="73" text-anchor="start" direction="ltr" writing-mode="lr-tb" unicode-bidi="normal" text-decoration="none" transform="matrix(1 0 0 1 744.887 1641)">Actuator</text><text fill="#000000" fill-opacity="1" font-family="Roboto,Roboto_MSFontService,sans-serif" font-style="normal" font-variant="normal" font-weight="400" font-stretch="normal" font-size="73" text-anchor="start" direction="ltr" writing-mode="lr-tb" unicode-bidi="normal" text-decoration="none" transform="matrix(1 0 0 1 743.466 1729)">controls</text><path d="M891.229 1445.43 892.261 1526.25 880.804 1526.39 879.771 1445.57ZM903.646 1520.37 886.899 1554.96 869.273 1520.81Z" fill="#789A47" fill-rule="nonzero" fill-opacity="1"/><path d="M2095.23 1445.47 2095.82 1570.72 2084.36 1570.77 2083.77 1445.53ZM2107.25 1564.94 2090.22 1599.39 2072.87 1565.1Z" fill="#961800" fill-rule="nonzero" fill-opacity="1"/><rect x="1882" y="1212" width="413" height="233" fill="#FFD372" fill-opacity="1"/><text fill="#000000" fill-opacity="1" font-family="Roboto,Roboto_MSFontService,sans-serif" font-style="normal" font-variant="normal" font-weight="400" font-stretch="normal" font-size="83" text-anchor="start" direction="ltr" writing-mode="lr-tb" unicode-bidi="normal" text-decoration="none" transform="matrix(1 0 0 1 1915.46 1307)">NW </text><text fill="#000000" fill-opacity="1" font-family="Roboto,Roboto_MSFontService,sans-serif" font-style="normal" font-variant="normal" font-weight="400" font-stretch="normal" font-size="83" text-anchor="start" direction="ltr" writing-mode="lr-tb" unicode-bidi="normal" text-decoration="none" transform="matrix(1 0 0 1 1915.46 1406)">driver</text><path d="M2219.65 1263.39 2216.89 1265.11 2214.72 1266.61 2212.98 1267.98 2211.67 1269.18 2212.15 1268.67 2210.07 1271.24 2210.83 1269.89 2210.03 1272.12 2210.22 1269.77 2210.57 1271.7 2209.62 1269.63 2210.97 1271.28 2209.89 1270.32 2212.09 1271.74 2211.37 1271.36 2214.27 1272.57 2217.28 1273.44 2220.86 1274.25 2229.02 1275.68 2237.2 1276.94 2241.01 1277.6 2244.44 1278.33C2246.14 1278.69 2247.49 1279.98 2247.92 1281.66L2248.88 1285.4 2249.58 1288.68 2249.97 1291.5 2250.06 1294.01C2250.07 1294.26 2250.06 1294.51 2250.02 1294.76L2249.8 1296.38C2249.75 1296.71 2249.67 1297.03 2249.55 1297.34L2249.07 1298.65C2248.88 1299.14 2248.62 1299.59 2248.29 1299.99L2246.59 1302.02C2246.34 1302.31 2246.06 1302.57 2245.75 1302.8L2243.18 1304.65 2239.84 1307.03 2238.21 1308.41 2236.4 1310.18 2234.46 1312.41 2232.37 1315.19 2232.03 1309.26 2233.75 1311.06 2236.06 1313.38 2238.81 1316.37 2241.47 1319.88C2241.64 1320.1 2241.78 1320.33 2241.9 1320.57L2243.58 1323.92C2243.73 1324.21 2243.84 1324.51 2243.93 1324.83L2244.36 1326.53C2244.44 1326.82 2244.49 1327.12 2244.5 1327.42L2244.6 1329.11C2244.62 1329.47 2244.59 1329.83 2244.53 1330.19L2244.22 1331.86C2244.15 1332.25 2244.03 1332.62 2243.87 1332.98L2243.1 1334.61C2242.94 1334.95 2242.75 1335.27 2242.51 1335.56L2241.23 1337.13C2241.03 1337.37 2240.81 1337.6 2240.56 1337.8L2238.71 1339.3C2238.45 1339.51 2238.16 1339.7 2237.86 1339.85L2235.01 1341.26 2231.17 1342.73 2223.43 1345 2219.84 1345.87 2216.96 1346.5 2215 1346.9 2214.26 1347.04 2217.79 1343.84 2216.15 1349.4 2216.21 1347.04 2217.63 1352.98 2208.71 1355.1 2207.29 1349.16C2207.11 1348.38 2207.13 1347.57 2207.36 1346.8L2209 1341.24C2209.49 1339.59 2210.85 1338.36 2212.54 1338.04L2213.18 1337.91 2215 1337.54 2217.69 1336.95 2220.87 1336.19 2227.93 1334.15 2230.95 1333.04 2233.79 1331.63 2232.94 1332.18 2234.79 1330.68 2234.12 1331.35 2235.39 1329.78 2234.8 1330.72 2235.56 1329.09 2235.21 1330.21 2235.51 1328.54 2235.45 1329.62 2235.35 1327.93 2235.49 1328.82 2235.05 1327.12 2235.39 1328.03 2233.71 1324.68 2234.14 1325.38 2232.06 1322.56 2229.59 1319.86 2227.12 1317.4 2225.4 1315.6C2223.85 1313.97 2223.7 1311.46 2225.06 1309.67L2227.58 1306.35 2230.01 1303.61 2232.32 1301.39 2234.52 1299.56 2237.83 1297.2 2240.4 1295.35 2239.56 1296.13 2241.26 1294.1 2240.48 1295.44 2240.96 1294.14 2240.72 1295.11 2240.94 1293.5 2240.9 1294.24 2240.89 1292.74 2240.61 1290.56 2240.01 1287.69 2239.04 1283.95 2242.53 1287.29 2239.44 1286.63 2235.8 1286 2227.43 1284.71 2218.81 1283.19 2214.66 1282.22 2210.75 1281.03 2207.84 1279.82C2207.59 1279.72 2207.35 1279.59 2207.12 1279.44L2204.93 1278.02C2204.52 1277.76 2204.16 1277.44 2203.85 1277.06L2202.51 1275.41C2202.02 1274.81 2201.69 1274.09 2201.55 1273.33L2201.2 1271.4C2201.06 1270.61 2201.13 1269.8 2201.4 1269.05L2202.19 1266.81C2202.37 1266.32 2202.62 1265.87 2202.95 1265.46L2205.04 1262.89C2205.18 1262.71 2205.35 1262.54 2205.52 1262.38L2207.35 1260.74 2209.52 1259.07 2212.04 1257.33 2214.8 1255.61ZM2224.5 1345.01 2221.06 1375.56 2198.68 1354.47Z" fill="#000000" fill-rule="nonzero" fill-opacity="1"/><text fill="#000000" fill-opacity="1" font-family="Roboto,Roboto_MSFontService,sans-serif" font-style="normal" font-variant="normal" font-weight="400" font-stretch="normal" font-size="73" text-anchor="start" direction="ltr" writing-mode="lr-tb" unicode-bidi="normal" text-decoration="none" transform="matrix(1 0 0 1 1782.68 1024)">Interrupts</text><text fill="#000000" fill-opacity="1" font-family="Roboto,Roboto_MSFontService,sans-serif" font-style="normal" font-variant="normal" font-weight="400" font-stretch="normal" font-size="73" text-anchor="start" direction="ltr" writing-mode="lr-tb" unicode-bidi="normal" text-decoration="none" transform="matrix(1 0 0 1 2178.45 1028)">Data</text><text fill="#000000" fill-opacity="1" font-family="Roboto,Roboto_MSFontService,sans-serif" font-style="normal" font-variant="normal" font-weight="400" font-stretch="normal" font-size="73" text-anchor="start" direction="ltr" writing-mode="lr-tb" unicode-bidi="normal" text-decoration="none" transform="matrix(1 0 0 1 2011.01 1686)">Data</text><path d="M1947.63 1056.53 2073.53 1187.57 2065.27 1195.51 1939.37 1064.47ZM2077.83 1175.5 2089.25 1212.2 2053.04 1199.32Z" fill="#961800" fill-rule="nonzero" fill-opacity="1"/><path d="M3.7825-4.30303 150.43 124.605 142.865 133.211-3.7825 4.30303ZM153.692 112.216 168.163 147.82 130.997 138.035Z" fill="#961800" fill-rule="nonzero" fill-opacity="1" transform="matrix(-1 0 0 1 2257.66 1064.5)"/><path d="M4.64972-3.34716 211.669 284.235 202.37 290.929-4.64972 3.34716ZM217.621 272.891 223.755 310.83 189.723 292.974Z" fill="#961800" fill-rule="nonzero" fill-opacity="1" transform="matrix(1 0 0 -1 1659.5 1639.33)"/><rect x="1318" y="1522" width="341" height="234" fill="#A5D062" fill-opacity="1"/><text fill="#000000" fill-opacity="1" font-family="Roboto,Roboto_MSFontService,sans-serif" font-style="normal" font-variant="normal" font-weight="400" font-stretch="normal" font-size="83" text-anchor="start" direction="ltr" writing-mode="lr-tb" unicode-bidi="normal" text-decoration="none" transform="matrix(1 0 0 1 1350.51 1618)">Shared</text><text fill="#000000" fill-opacity="1" font-family="Roboto,Roboto_MSFontService,sans-serif" font-style="normal" font-variant="normal" font-weight="400" font-stretch="normal" font-size="83" text-anchor="start" direction="ltr" writing-mode="lr-tb" unicode-bidi="normal" text-decoration="none" transform="matrix(1 0 0 1 1350.51 1717)">data</text><path d="M1313.44 1642.72 1101.85 1354.97 1111.09 1348.18 1322.67 1635.94ZM1096.02 1366.38 1089.5 1328.5 1123.71 1346.01Z" fill="#789A47" fill-rule="nonzero" fill-opacity="1"/></g></g></svg>