<svg width="1678" height="1466" xmlns="http://www.w3.org/2000/svg" xmlns:xlink="http://www.w3.org/1999/xlink" xml:space="preserve" overflow="hidden"><g transform="translate(-618 -481)"><g><path d="M1028.43 649.659 1128.01 628.681 1093.91 662.795 1205.05 773.913 1239.16 739.798 1218.21 839.382 1118.63 860.36 1152.74 826.245 1041.59 715.128 1007.48 749.242Z" fill="#324965" fill-rule="evenodd" fill-opacity="1"/><text fill="#FFFFFF" fill-opacity="1" font-family="Roboto,Roboto_MSFontService,sans-serif" font-style="normal" font-variant="normal" font-weight="400" font-stretch="normal" font-size="55" text-anchor="start" direction="ltr" writing-mode="lr-tb" unicode-bidi="normal" text-decoration="none" transform="matrix(0.707206 0.707007 -0.707007 0.707206 1062.08 710)">Proof</text><path d="M1468 866 1387 813.173 1432.84 813.173 1432.84 664.826 1387 664.826 1468 612 1549 664.826 1503.16 664.826 1503.16 813.173 1549 813.173Z" fill="#324965" fill-rule="evenodd" fill-opacity="1"/><text fill="#FFFFFF" fill-opacity="1" font-family="Roboto,Roboto_MSFontService,sans-serif" font-style="normal" font-variant="normal" font-weight="400" font-stretch="normal" font-size="55" text-anchor="start" direction="ltr" writing-mode="lr-tb" unicode-bidi="normal" text-decoration="none" transform="matrix(-1.83697e-16 -1 1 -1.83697e-16 1487.01 806)">Proof</text><path d="M0 83.1583 54.2341 0 54.2341 47.0617 238.984 47.0617 238.984 0 293.218 83.1583 238.984 166.317 238.984 119.255 54.2341 119.255 54.2341 166.317Z" fill="#324965" fill-rule="evenodd" fill-opacity="1" transform="matrix(-0.707207 0.707007 0.707007 0.707207 1865.36 579.121)"/><text fill="#FFFFFF" fill-opacity="1" font-family="Roboto,Roboto_MSFontService,sans-serif" font-style="normal" font-variant="normal" font-weight="400" font-stretch="normal" font-size="55" text-anchor="start" direction="ltr" writing-mode="lr-tb" unicode-bidi="normal" text-decoration="none" transform="matrix(0.707206 -0.707007 0.707007 0.707206 1786.09 803)">Proof</text><path d="M1221 501.046C1221 492.736 1227.74 486 1236.05 486L1706.95 486C1715.26 486 1722 492.736 1722 501.046L1722 594.954C1722 603.264 1715.26 610 1706.95 610L1236.05 610C1227.74 610 1221 603.264 1221 594.954Z" fill="#80B135" fill-rule="evenodd" fill-opacity="1"/><text fill="#000000" fill-opacity="1" font-family="Roboto,Roboto_MSFontService,sans-serif" font-style="normal" font-variant="normal" font-weight="400" font-stretch="normal" font-size="73" text-anchor="start" direction="ltr" writing-mode="lr-tb" unicode-bidi="normal" text-decoration="none" transform="matrix(1 0 0 1 1338.3 574)">Integrity</text><path d="M1235 893.783C1235 880.648 1245.65 870 1258.78 870L1671.22 870C1684.35 870 1695 880.648 1695 893.783L1695 1042.22C1695 1055.35 1684.35 1066 1671.22 1066L1258.78 1066C1245.65 1066 1235 1055.35 1235 1042.22Z" fill="#80B135" fill-rule="evenodd" fill-opacity="1"/><text fill="#000000" fill-opacity="1" font-family="Roboto,Roboto_MSFontService,sans-serif" font-style="normal" font-variant="normal" font-weight="400" font-stretch="normal" font-size="73" text-anchor="start" direction="ltr" writing-mode="lr-tb" unicode-bidi="normal" text-decoration="none" transform="matrix(1 0 0 1 1325.69 950)">Abstract</text><text fill="#000000" fill-opacity="1" font-family="Roboto,Roboto_MSFontService,sans-serif" font-style="normal" font-variant="normal" font-weight="400" font-stretch="normal" font-size="73" text-anchor="start" direction="ltr" writing-mode="lr-tb" unicode-bidi="normal" text-decoration="none" transform="matrix(1 0 0 1 1362.93 1038)">Model</text><path d="M1235 1358.66C1235 1345.59 1245.59 1335 1258.66 1335L1671.34 1335C1684.41 1335 1695 1345.59 1695 1358.66L1695 1506.34C1695 1519.41 1684.41 1530 1671.34 1530L1258.66 1530C1245.59 1530 1235 1519.41 1235 1506.34Z" fill="#80B135" fill-rule="evenodd" fill-opacity="1"/><text fill="#000000" fill-opacity="1" font-family="Roboto,Roboto_MSFontService,sans-serif" font-style="normal" font-variant="normal" font-weight="400" font-stretch="normal" font-size="73" text-anchor="start" direction="ltr" writing-mode="lr-tb" unicode-bidi="normal" text-decoration="none" transform="matrix(1 0 0 1 1330.84 1415)">C Imple</text><text fill="#000000" fill-opacity="1" font-family="Roboto,Roboto_MSFontService,sans-serif" font-style="normal" font-variant="normal" font-weight="400" font-stretch="normal" font-size="73" text-anchor="start" direction="ltr" writing-mode="lr-tb" unicode-bidi="normal" text-decoration="none" transform="matrix(1 0 0 1 1578.92 1415)">-</text><text fill="#000000" fill-opacity="1" font-family="Roboto,Roboto_MSFontService,sans-serif" font-style="normal" font-variant="normal" font-weight="400" font-stretch="normal" font-size="73" text-anchor="start" direction="ltr" writing-mode="lr-tb" unicode-bidi="normal" text-decoration="none" transform="matrix(1 0 0 1 1298.76 1503)">mentation</text><path d="M651 502.168C651 493.791 657.791 487 666.168 487L1136.83 487C1145.21 487 1152 493.791 1152 502.168L1152 596.832C1152 605.209 1145.21 612 1136.83 612L666.168 612C657.791 612 651 605.209 651 596.832Z" fill="#80B135" fill-rule="evenodd" fill-opacity="1"/><text fill="#000000" fill-opacity="1" font-family="Roboto,Roboto_MSFontService,sans-serif" font-style="normal" font-variant="normal" font-weight="400" font-stretch="normal" font-size="73" text-anchor="start" direction="ltr" writing-mode="lr-tb" unicode-bidi="normal" text-decoration="none" transform="matrix(1 0 0 1 666.328 575)">Confidentiality</text><path d="M1791 502.046C1791 493.736 1797.74 487 1806.05 487L2276.95 487C2285.26 487 2292 493.736 2292 502.046L2292 595.954C2292 604.264 2285.26 611 2276.95 611L1806.05 611C1797.74 611 1791 604.264 1791 595.954Z" fill="#80B135" fill-rule="evenodd" fill-opacity="1"/><text fill="#000000" fill-opacity="1" font-family="Roboto,Roboto_MSFontService,sans-serif" font-style="normal" font-variant="normal" font-weight="400" font-stretch="normal" font-size="73" text-anchor="start" direction="ltr" writing-mode="lr-tb" unicode-bidi="normal" text-decoration="none" transform="matrix(1 0 0 1 1865.05 575)">Availability</text><path d="M1235 1813.08C1235 1805.3 1241.3 1799 1249.08 1799L1680.92 1799C1688.7 1799 1695 1805.3 1695 1813.08L1695 1900.92C1695 1908.7 1688.7 1915 1680.92 1915L1249.08 1915C1241.3 1915 1235 1908.7 1235 1900.92Z" fill="#80B135" fill-rule="evenodd" fill-opacity="1"/><text fill="#000000" fill-opacity="1" font-family="Roboto,Roboto_MSFontService,sans-serif" font-style="normal" font-variant="normal" font-weight="400" font-stretch="normal" font-size="73" text-anchor="start" direction="ltr" writing-mode="lr-tb" unicode-bidi="normal" text-decoration="none" transform="matrix(1 0 0 1 1273.55 1883)">Binary code</text><path d="M1465 1327 1384 1274.17 1429.84 1274.17 1429.84 1127.83 1384 1127.83 1465 1075 1546 1127.83 1500.16 1127.83 1500.16 1274.17 1546 1274.17Z" fill="#324965" fill-rule="evenodd" fill-opacity="1"/><text fill="#FFFFFF" fill-opacity="1" font-family="Roboto,Roboto_MSFontService,sans-serif" font-style="normal" font-variant="normal" font-weight="400" font-stretch="normal" font-size="55" text-anchor="start" direction="ltr" writing-mode="lr-tb" unicode-bidi="normal" text-decoration="none" transform="matrix(-1.83697e-16 -1 1 -1.83697e-16 1483.62 1268)">Proof</text><path d="M1465 1791 1384 1738.17 1429.84 1738.17 1429.84 1591.83 1384 1591.83 1465 1539 1546 1591.83 1500.16 1591.83 1500.16 1738.17 1546 1738.17Z" fill="#324965" fill-rule="evenodd" fill-opacity="1"/><text fill="#FFFFFF" fill-opacity="1" font-family="Roboto,Roboto_MSFontService,sans-serif" font-style="normal" font-variant="normal" font-weight="400" font-stretch="normal" font-size="55" text-anchor="start" direction="ltr" writing-mode="lr-tb" unicode-bidi="normal" text-decoration="none" transform="matrix(-1.83697e-16 -1 1 -1.83697e-16 1483.62 1732)">Proof</text></g></g></svg>